<?xml version="1.0" encoding="UTF-8" standalone="no"?>
<!DOCTYPE svg PUBLIC "-//W3C//DTD SVG 1.1//EN"
"http://www.w3.org/Graphics/SVG/1.1/DTD/svg11.dtd">
<svg viewBox="0 0 1286 909" version="1.1" xmlns="http://www.w3.org/2000/svg" xmlns:xlink="http://www.w3.org/1999/xlink">
<defs>
<clipPath id="c0"><path d="M12.2,12.2L7.6,7.6h1271l-4.6,4.6Z"/></clipPath>
<clipPath id="c1"><path d="M1278.6,901.8l-4.6,-4.6V12.2l4.6,-4.6V901.8Z"/></clipPath>
<clipPath id="c2"><path d="M7.6,901.8l4.6,-4.6H1274l4.6,4.6Z"/></clipPath>
<clipPath id="c3"><path d="M7.6,901.8V7.6l4.6,4.6v885l-4.6,4.6Z"/></clipPath>
<clipPath id="c4"><path d="M16.8,16.8L12.2,12.2H1274l-4.6,4.6Z"/></clipPath>
<clipPath id="c5"><path d="M1274,897.2l-4.6,-4.5V16.8l4.6,-4.6v885Z"/></clipPath>
<clipPath id="c6"><path d="M12.2,897.2l4.6,-4.5H1269.4l4.6,4.5Z"/></clipPath>
<clipPath id="c7"><path d="M12.2,897.2V12.2l4.6,4.6V892.7l-4.6,4.5Z"/></clipPath>
<clipPath id="c8"><path d="M21.4,21.4L16.8,16.8H1269.4l-4.6,4.6Z"/></clipPath>
<clipPath id="c9"><path d="M1269.4,892.7l-4.6,-4.6V21.4l4.6,-4.6V892.7Z"/></clipPath>
<clipPath id="ca"><path d="M16.8,892.7l4.6,-4.6H1264.8l4.6,4.6Z"/></clipPath>
<clipPath id="cb"><path d="M16.8,892.7V16.8l4.6,4.6V888.1l-4.6,4.6Z"/></clipPath>
<clipPath id="cc"><path d="M326,761.3V145.7H959.8V761.3Z"/></clipPath>
<clipPath id="cd"><path d="M570.5,144.2V22H715.7V144.2Z"/></clipPath>
<clipPath id="ce"><path d="M35.1,399.7l-1.5,-1.6h1219l-1.5,1.6Z"/></clipPath>
<clipPath id="cf"><path d="M1252.6,620.7l-1.5,-1.5V399.7l1.5,-1.6V620.7Z"/></clipPath>
<clipPath id="cg"><path d="M33.6,620.7l1.5,-1.5h1216l1.5,1.5Z"/></clipPath>
<clipPath id="ch"><path d="M33.6,620.7V398.1l1.5,1.6V619.2l-1.5,1.5Z"/></clipPath>
<clipPath id="ci"><path d="M411.8,859.8v-107H625.7v107Z"/></clipPath>
<clipPath id="cj"><path d="M1016.1,853.3V647h206.3V853.3Z"/></clipPath>
<style type="text/css"><![CDATA[
.g0{
fill: none;
stroke: #000000;
stroke-width: 9.166;
stroke-linecap: butt;
stroke-linejoin: miter;
}
.g1{
fill: none;
stroke: #FFFFFF;
stroke-width: 9.166;
stroke-linecap: butt;
stroke-linejoin: miter;
}
.g2{
fill: none;
stroke: #75AADB;
stroke-width: 9.166;
stroke-linecap: butt;
stroke-linejoin: miter;
}
.g3{
fill: none;
stroke: #9CA3AF;
stroke-width: 3.055;
stroke-linecap: butt;
stroke-linejoin: miter;
}
.g4{
fill: #9CA3AF;
}
]]></style>
</defs>
<path clip-path="url(#c0)" d="M7.6,12.2q0,-4.6,0,-4.6h1271" class="g0"/>
<path clip-path="url(#c1)" d="M1278.6,7.6V901.8" class="g0"/>
<path clip-path="url(#c2)" d="M1278.6,901.8H7.6" class="g0"/>
<path clip-path="url(#c3)" d="M7.6,901.8V7.6" class="g0"/>
<path clip-path="url(#c4)" d="M12.2,16.8q0,-4.6,0,-4.6H1274" class="g1"/>
<path clip-path="url(#c5)" d="M1274,12.2v885" class="g1"/>
<path clip-path="url(#c6)" d="M1274,897.2H12.2" class="g1"/>
<path clip-path="url(#c7)" d="M12.2,897.2V12.2" class="g1"/>
<path clip-path="url(#c8)" d="M16.8,21.4q0,-4.6,0,-4.6H1269.4" class="g2"/>
<path clip-path="url(#c9)" d="M1269.4,16.8V892.7" class="g2"/>
<path clip-path="url(#ca)" d="M1269.4,892.7H16.8" class="g2"/>
<path clip-path="url(#cb)" d="M16.8,892.7V16.8" class="g2"/>
<image clip-path="url(#cc)" preserveAspectRatio="none" x="326" y="146" width="634" height="615" opacity="0.1" xlink:href="img/1.png"/>
<image clip-path="url(#cd)" preserveAspectRatio="none" x="571" y="22" width="145" height="122" xlink:href="img/2.png"/>
<path clip-path="url(#ce)" d="M33.6,399.7q0,-1.6,0,-1.6h1219" class="g3"/>
<path clip-path="url(#cf)" d="M1252.6,398.1V620.7" class="g3"/>
<path clip-path="url(#cg)" d="M1252.6,620.7H33.6" class="g3"/>
<path clip-path="url(#ch)" d="M33.6,620.7V398.1" class="g3"/>
<path d="M35.1,399.7h1216v38.6H35.1V399.7Z" class="g4"/>
<image clip-path="url(#ci)" preserveAspectRatio="none" x="412" y="753" width="214" height="107" xlink:href="img/3.jpg"/>
<image clip-path="url(#cj)" preserveAspectRatio="none" x="1016" y="647" width="206" height="206" xlink:href="img/4.jpg"/>
</svg>